<svg xmlns="http://www.w3.org/2000/svg" aria-hidden="true" focusable="false" data-prefix="fal" data-icon="volume-up" role="img" width="635.2857142857144" height="520.5714285714284" style=""><rect id="backgroundrect" width="100%" height="100%" x="0" y="0" fill="none" stroke="none" class="" stroke-width="4" style=""/><g class="currentLayer" style=""><title>Layer 1</title><path fill="#00A2FF" d="M380.0528565979004,198.71285707473754 c-7.8100000000000005,-3.8 -17.5,-0.48000000000000004 -21.34,7.5 c-3.81,7.97 -0.44000000000000006,17.53 7.53,21.34 C380.3628565979004,234.34285707473754 389.1428565979004,247.20285707473755 389.1428565979004,261.14285707473755 s-8.78,26.8 -22.9,33.58 c-7.97,3.81 -11.34,13.38 -7.53,21.34 c3.8600000000000003,8.05 13.54,11.29 21.34,7.5 C405.3928565979004,311.4228570747375 421.1428565979004,287.50285707473756 421.1428565979004,261.14285707473755 s-15.75,-50.29 -41.09,-62.43 zM268.9528565979004,69.14285707473755 c-5.91,0 -11.92,2.18 -16.78,7.05 L163.2028565979004,165.14285707473755 H61.14285659790039 c-13.26,0 -24,10.74 -24,24 v144 c0,13.25 10.74,24 24,24 h102.06 l88.97,88.95 c4.87,4.87 10.88,7.05 16.78,7.05 c12.33,0 24.19,-9.52 24.19,-24.02 V93.16285707473754 C293.1428565979004,78.65285707473755 281.2728565979004,69.14285707473755 268.9528565979004,69.14285707473755 zM261.1428565979004,409.81285707473756 L176.4528565979004,325.14285707473755 H69.14285659790039 V197.14285707473755 h107.31 L261.1428565979004,112.47285707473755 v297.34 zM458.6528565979004,6.972857074737549 c-7.890000000000001,-4.08 -17.53,-1.12 -21.66,6.7 c-4.13,7.8100000000000005 -1.13,17.5 6.7,21.61 c84.76,44.55 137.4,131.1 137.4,225.85 s-52.64,181.3 -137.4,225.85 c-7.82,4.11 -10.83,13.8 -6.7,21.61 c4.1,7.75 13.68,10.84 21.66,6.7 C553.9228565979004,465.20285707473755 613.1428565979004,367.81285707473756 613.1428565979004,261.13285707473756 c0,-106.67 -59.22,-204.06 -154.49,-254.16 zM517.1428565979004,261.13285707473756 c0,-66.12 -34.02,-126.62 -88.81,-157.87 c-7.69,-4.38 -17.59,-1.78 -22.04,5.890000000000001 c-4.45,7.66 -1.77,17.44 5.96,21.86 c44.77,25.55 72.61,75.4 72.61,130.12 s-27.84,104.58 -72.61,130.12 c-7.72,4.42 -10.4,14.2 -5.96,21.86 c4.3,7.38 14.06,10.44 22.04,5.890000000000001 C483.1228565979004,387.76285707473755 517.1428565979004,327.26285707473755 517.1428565979004,261.13285707473756 z" id="svg_1" class="selected" stroke="none" fill-opacity="1"/></g></svg>